<?xml version="1.0" encoding="UTF-8" standalone="no"?>
<svg
   xmlns:dc="http://purl.org/dc/elements/1.1/"
   xmlns:cc="http://creativecommons.org/ns#"
   xmlns:rdf="http://www.w3.org/1999/02/22-rdf-syntax-ns#"
   xmlns:svg="http://www.w3.org/2000/svg"
   xmlns="http://www.w3.org/2000/svg"
   xmlns:sodipodi="http://sodipodi.sourceforge.net/DTD/sodipodi-0.dtd"
   xmlns:inkscape="http://www.inkscape.org/namespaces/inkscape"
   sodipodi:docname="binobar-v1-cover-laser.svg"
   inkscape:version="1.0 (4035a4fb49, 2020-05-01)"
   id="svg8"
   version="1.1"
   viewBox="0 0 300 210"
   height="210mm"
   width="300mm">
  <defs
     id="defs2" />
  <sodipodi:namedview
     id="base"
     pagecolor="#ffffff"
     bordercolor="#666666"
     borderopacity="1.0"
     inkscape:pageopacity="0.0"
     inkscape:pageshadow="2"
     inkscape:zoom="1.4"
     inkscape:cx="154.52346"
     inkscape:cy="267.70333"
     inkscape:document-units="mm"
     inkscape:current-layer="layer2"
     inkscape:document-rotation="0"
     showgrid="false"
     borderlayer="true"
     inkscape:showpageshadow="false"
     inkscape:window-width="3440"
     inkscape:window-height="1356"
     inkscape:window-x="-8"
     inkscape:window-y="-8"
     inkscape:window-maximized="1" />
  <metadata
     id="metadata5">
    <rdf:RDF>
      <cc:Work
         rdf:about="">
        <dc:format>image/svg+xml</dc:format>
        <dc:type
           rdf:resource="http://purl.org/dc/dcmitype/StillImage" />
        <dc:title></dc:title>
      </cc:Work>
    </rdf:RDF>
  </metadata>
  <g
     style="display:none"
     inkscape:label="background"
     inkscape:groupmode="layer"
     id="layer1"
     sodipodi:insensitive="true">
    <rect
       style="fill:#000000;fill-opacity:0.0722891;stroke:none;stroke-width:0;stroke-miterlimit:1.5;stroke-dasharray:none"
       id="rect833"
       width="300"
       height="210"
       x="0"
       y="0" />
  </g>
  <g
     inkscape:groupmode="layer"
     id="layer2"
     inkscape:label="cut_outermost">
    <path
       d="M 14.6191 132.237 L 94.6191 132.237 C 97.1043 132.237 99.1191 130.222 99.119 127.737 L 99.119 14.6191 C 99.1191 12.1338 97.1043 10.1191 94.6191 10.1191 L 14.6191 10.1191 C 13.4256 10.1191 12.281 10.5932 11.4371 11.4371 C 10.5932 12.281 10.1191 13.4256 10.1191 14.6191 L 10.1191 127.737 C 10.1191 128.93 10.5932 130.075 11.4371 130.919 C 12.281 131.763 13.4256 132.237 14.6191 132.237"
       style="fill:none;stroke:#000000;stroke-width:0.05;stroke-linecap:round;stroke-miterlimit:4;stroke-dasharray:none"
       id="path868" />
  </g>
  <g
     style="display:none"
     inkscape:groupmode="layer"
     id="layer3"
     inkscape:label="cut_mid" />
  <g
     inkscape:groupmode="layer"
     id="layer4"
     inkscape:label="cut_innermost">
    <path
       d="m 94.419062,126.2368 a 1.3,1.3 0 1 0 -2.6,0 1.3,1.3 0 1 0 2.6,0 z"
       style="fill:none;stroke:#000000;stroke-width:0.05;stroke-linecap:round;stroke-miterlimit:4;stroke-dasharray:none"
       id="path864" />
    <path
       d="m 94.419062,16.119071 a 1.3,1.3 0 1 0 -2.6,0 1.3,1.3 0 1 0 2.6,0 z"
       style="fill:none;stroke:#000000;stroke-width:0.05;stroke-linecap:round;stroke-miterlimit:4;stroke-dasharray:none"
       id="path866" />
    <path
       d="m 17.419062,16.119071 a 1.3000011,1.3000011 0 1 0 -2.6,0 1.3000011,1.3000011 0 1 0 2.6,0 z"
       style="fill:none;stroke:#000000;stroke-width:0.05;stroke-linecap:round;stroke-miterlimit:4;stroke-dasharray:none"
       id="path884" />
    <path
       d="m 17.419062,126.2368 a 1.3000011,1.3000011 0 1 0 -2.6,0 1.3000011,1.3000011 0 1 0 2.6,0 z"
       style="fill:none;stroke:#000000;stroke-width:0.05;stroke-linecap:round;stroke-miterlimit:4;stroke-dasharray:none"
       id="path886" />
  </g>
  <g
     style="display:none"
     inkscape:groupmode="layer"
     id="layer5"
     inkscape:label="engrave_2" />
  <g
     style="display:none"
     inkscape:groupmode="layer"
     id="layer6"
     inkscape:label="engrave_1" />
</svg>
