<?xml version="1.0" encoding="UTF-8" standalone="no"?>
<svg
   xmlns:dc="http://purl.org/dc/elements/1.1/"
   xmlns:cc="http://creativecommons.org/ns#"
   xmlns:rdf="http://www.w3.org/1999/02/22-rdf-syntax-ns#"
   xmlns:svg="http://www.w3.org/2000/svg"
   xmlns="http://www.w3.org/2000/svg"
   xmlns:sodipodi="http://sodipodi.sourceforge.net/DTD/sodipodi-0.dtd"
   xmlns:inkscape="http://www.inkscape.org/namespaces/inkscape"
   width="300mm"
   height="210mm"
   viewBox="0 0 300 210"
   version="1.1"
   id="svg8"
   inkscape:version="1.0 (4035a4fb49, 2020-05-01)"
   sodipodi:docname="v2_door.svg">
  <defs
     id="defs2" />
  <sodipodi:namedview
     id="base"
     pagecolor="#ffffff"
     bordercolor="#666666"
     borderopacity="1.0"
     inkscape:pageopacity="0.0"
     inkscape:pageshadow="2"
     inkscape:zoom="1.4"
     inkscape:cx="580.84137"
     inkscape:cy="431.92945"
     inkscape:document-units="mm"
     inkscape:current-layer="layer4"
     inkscape:document-rotation="0"
     showgrid="false"
     borderlayer="true"
     inkscape:showpageshadow="false"
     inkscape:window-width="1718"
     inkscape:window-height="1347"
     inkscape:window-x="1713"
     inkscape:window-y="0"
     inkscape:window-maximized="0" />
  <metadata
     id="metadata5">
    <rdf:RDF>
      <cc:Work
         rdf:about="">
        <dc:format>image/svg+xml</dc:format>
        <dc:type
           rdf:resource="http://purl.org/dc/dcmitype/StillImage" />
        <dc:title />
      </cc:Work>
    </rdf:RDF>
  </metadata>
  <g
     style="display:none"
     inkscape:label="background"
     inkscape:groupmode="layer"
     id="layer1"
     sodipodi:insensitive="true">
    <rect
       style="fill:#000000;fill-opacity:0.0722891;stroke:none;stroke-width:0;stroke-miterlimit:1.5;stroke-dasharray:none"
       id="rect833"
       width="300"
       height="210"
       x="0"
       y="0" />
  </g>
  <g
     inkscape:groupmode="layer"
     id="layer2"
     inkscape:label="cut_outermost">
    <path
       d="M 92.6923 72.8934 L 92.6923 152.511 L 98.7023 152.511 C 129.764 125.844 175.641 125.844 206.702 152.511 L 212.712 152.511 L 212.712 59.4348 L 177.816 50.0845 Z"
       style="fill:none;stroke:#000000;stroke-width:0.05;stroke-linecap:round;stroke-miterlimit:4;stroke-dasharray:none"
       id="path4198" />
  </g>
  <g
     style="display:none"
     inkscape:groupmode="layer"
     id="layer3"
     inkscape:label="cut_mid" />
  <g
     sodipodi:insensitive="true"
     inkscape:groupmode="layer"
     id="layer4"
     inkscape:label="cut_innermost">
    <path
       d="m 107.57624,77.535814 a 1.3000015,1.3000015 0 1 0 -2.6,0 1.3000015,1.3000015 0 1 0 2.6,0 z"
       style="fill:none;stroke:#000000;stroke-width:0.05;stroke-linecap:round;stroke-miterlimit:4;stroke-dasharray:none"
       id="path4190" />
    <path
       d="m 136.73834,69.721844 a 1.3,1.3 0 1 0 -2.6,0 1.3,1.3 0 1 0 2.6,0 z"
       style="fill:none;stroke:#000000;stroke-width:0.05;stroke-linecap:round;stroke-miterlimit:4;stroke-dasharray:none"
       id="path4192" />
    <path
       d="m 152.19314,65.580744 a 1.3,1.3 0 1 0 -2.6,0 1.3,1.3 0 1 0 2.6,0 z"
       style="fill:none;stroke:#000000;stroke-width:0.05;stroke-linecap:round;stroke-miterlimit:4;stroke-dasharray:none"
       id="path4194" />
    <path
       d="m 123.03104,73.394714 a 1.3,1.3 0 1 0 -2.6,0 1.3,1.3 0 1 0 2.6,0 z"
       style="fill:none;stroke:#000000;stroke-width:0.05;stroke-linecap:round;stroke-miterlimit:4;stroke-dasharray:none"
       id="path4196" />
  </g>
  <g
     style="display:none"
     inkscape:groupmode="layer"
     id="layer5"
     inkscape:label="engrave_2">
    <g
       transform="matrix(-1,0,0,1,328.14241,49.561863)"
       style="font-style:normal;font-variant:normal;font-weight:normal;font-stretch:normal;font-size:9.82061px;line-height:1.25;font-family:'Arial Rounded MT Bold';-inkscape-font-specification:'Arial Rounded MT Bold, ';text-align:center;letter-spacing:0px;word-spacing:0px;text-anchor:middle;display:inline;fill:#ff0000;fill-opacity:1;stroke:none;stroke-width:0.264583"
       id="text977"
       aria-label="BINOCULARS BORROW BOX  PLEASE RETURN HERE">
      <g
         transform="translate(0.26726953,1.3363476)"
         id="g2975">
        <path
           d="m 153.33264,50.760494 h -2.14826 q -0.46514,0 -0.66653,-0.206194 -0.19661,-0.21099 -0.19661,-0.666536 v -5.284332 q 0,-0.465136 0.2014,-0.666535 0.2062,-0.206195 0.66174,-0.206195 h 2.27773 q 0.5035,0 0.87273,0.06234 0.36923,0.06234 0.66174,0.239761 0.24935,0.148652 0.44116,0.378822 0.19181,0.225376 0.29251,0.503498 0.1007,0.273328 0.1007,0.580222 0,1.054948 -1.05495,1.544061 1.38582,0.44116 1.38582,1.716688 0,0.589812 -0.3021,1.064539 -0.3021,0.469932 -0.81519,0.695307 -0.32128,0.134266 -0.73846,0.191809 -0.41718,0.05275 -0.97343,0.05275 z m -0.1055,-3.121688 h -1.48172 v 2.052354 h 1.52968 q 1.44336,0 1.44336,-1.040562 0,-0.53227 -0.37403,-0.772031 -0.37403,-0.239761 -1.11729,-0.239761 z m -1.48172,-2.83877 v 1.817388 h 1.3043 q 0.53227,0 0.81998,-0.100699 0.29251,-0.1007 0.44596,-0.383618 0.11988,-0.201399 0.11988,-0.45075 0,-0.53227 -0.37882,-0.704898 -0.37882,-0.177423 -1.15565,-0.177423 z"
           style="font-style:normal;font-variant:normal;font-weight:normal;font-stretch:normal;font-family:'Arial Rounded MT Bold';-inkscape-font-specification:'Arial Rounded MT Bold, ';text-align:center;text-anchor:middle;fill:#ff0000;fill-opacity:1;stroke:none;stroke-width:0.264583"
           id="path1062" />
        <path
           d="m 157.44694,50.01244 v -5.538479 q 0,-0.43157 0.1966,-0.647355 0.19661,-0.215784 0.5083,-0.215784 0.32127,0 0.51788,0.215784 0.2014,0.21099 0.2014,0.647355 v 5.538479 q 0,0.436365 -0.2014,0.65215 -0.19661,0.215785 -0.51788,0.215785 -0.3069,0 -0.5083,-0.215785 -0.1966,-0.22058 -0.1966,-0.65215 z"
           style="font-style:normal;font-variant:normal;font-weight:normal;font-stretch:normal;font-family:'Arial Rounded MT Bold';-inkscape-font-specification:'Arial Rounded MT Bold, ';text-align:center;text-anchor:middle;fill:#ff0000;fill-opacity:1;stroke:none;stroke-width:0.264583"
           id="path1064" />
        <path
           d="m 162.31409,44.464371 2.73807,4.14307 v -4.181432 q 0,-0.407594 0.17262,-0.608993 0.17743,-0.206194 0.47473,-0.206194 0.3069,0 0.48432,0.206194 0.17742,0.201399 0.17742,0.608993 v 5.528888 q 0,0.925478 -0.76723,0.925478 -0.19181,0 -0.34526,-0.05754 -0.15345,-0.05275 -0.28771,-0.172628 -0.13427,-0.11988 -0.24935,-0.278123 -0.11509,-0.163037 -0.23017,-0.33087 l -2.67094,-4.095117 v 4.119093 q 0,0.402799 -0.18702,0.608993 -0.18701,0.206195 -0.47952,0.206195 -0.3021,0 -0.48431,-0.206195 -0.18222,-0.210989 -0.18222,-0.608993 v -5.423393 q 0,-0.345256 0.0767,-0.54186 0.0911,-0.215785 0.3021,-0.350051 0.21099,-0.139061 0.45555,-0.139061 0.1918,0 0.32607,0.06234 0.13906,0.06234 0.23976,0.167833 0.1055,0.105495 0.21099,0.273328 0.11029,0.167832 0.22538,0.350051 z"
           style="font-style:normal;font-variant:normal;font-weight:normal;font-stretch:normal;font-family:'Arial Rounded MT Bold';-inkscape-font-specification:'Arial Rounded MT Bold, ';text-align:center;text-anchor:middle;fill:#ff0000;fill-opacity:1;stroke:none;stroke-width:0.264583"
           id="path1066" />
        <path
           d="m 171.01261,43.610822 q 1.09331,0 1.87493,0.445955 0.78642,0.44116 1.18922,1.261143 0.4028,0.815187 0.4028,1.918088 0,0.815187 -0.22058,1.481723 -0.22058,0.666535 -0.66174,1.155648 -0.44116,0.489112 -1.08372,0.748054 -0.64256,0.258942 -1.47213,0.258942 -0.82478,0 -1.47693,-0.263737 -0.65215,-0.268533 -1.08852,-0.75285 -0.43636,-0.484317 -0.66174,-1.165238 -0.22058,-0.680921 -0.22058,-1.472133 0,-0.810392 0.23017,-1.486518 0.23497,-0.676126 0.67613,-1.150853 0.44116,-0.474726 1.07413,-0.724078 0.63297,-0.254146 1.43856,-0.254146 z m 2.02359,3.615595 q 0,-0.77203 -0.24935,-1.337866 -0.24936,-0.565836 -0.71449,-0.853549 -0.46034,-0.292509 -1.05975,-0.292509 -0.42677,0 -0.79121,0.163038 -0.35964,0.158242 -0.62338,0.465136 -0.25894,0.306894 -0.41238,0.786416 -0.14866,0.474727 -0.14866,1.069334 0,0.599403 0.14866,1.08372 0.15344,0.484317 0.42677,0.805597 0.27812,0.316484 0.63297,0.474727 0.35964,0.158242 0.78641,0.158242 0.54666,0 1.00221,-0.273328 0.46034,-0.273327 0.72887,-0.843958 0.27333,-0.570631 0.27333,-1.405 z"
           style="font-style:normal;font-variant:normal;font-weight:normal;font-stretch:normal;font-family:'Arial Rounded MT Bold';-inkscape-font-specification:'Arial Rounded MT Bold, ';text-align:center;text-anchor:middle;fill:#ff0000;fill-opacity:1;stroke:none;stroke-width:0.264583"
           id="path1068" />
        <path
           d="m 181.69636,48.540307 q 0,0.335666 -0.16783,0.728874 -0.16304,0.388413 -0.51788,0.767235 -0.35485,0.374027 -0.9063,0.608993 -0.55145,0.234966 -1.28512,0.234966 -0.55624,0 -1.01179,-0.105495 -0.45554,-0.105495 -0.82957,-0.326075 -0.36923,-0.225375 -0.68092,-0.589812 -0.27813,-0.33087 -0.47473,-0.738464 -0.1966,-0.412389 -0.2973,-0.877525 -0.0959,-0.465136 -0.0959,-0.987815 0,-0.848754 0.24456,-1.520085 0.24935,-0.671331 0.70969,-1.146058 0.46034,-0.479522 1.07893,-0.728873 0.61858,-0.249351 1.31868,-0.249351 0.85355,0 1.52009,0.34046 0.66653,0.340461 1.02138,0.843959 0.35484,0.498703 0.35484,0.944658 0,0.244556 -0.17262,0.43157 -0.17263,0.187014 -0.41719,0.187014 -0.27333,0 -0.41239,-0.129471 -0.13426,-0.129471 -0.3021,-0.445956 -0.27812,-0.522679 -0.65694,-0.781621 -0.37403,-0.258942 -0.92548,-0.258942 -0.87752,0 -1.4002,0.666536 -0.51789,0.666536 -0.51789,1.894112 0,0.819982 0.23017,1.366637 0.23017,0.54186 0.65215,0.810393 0.42198,0.268532 0.98782,0.268532 0.61379,0 1.03577,-0.302099 0.42677,-0.306894 0.64256,-0.896706 0.0911,-0.278123 0.22537,-0.450751 0.13427,-0.177423 0.43157,-0.177423 0.25415,0 0.43637,0.177423 0.18221,0.177423 0.18221,0.44116 z"
           style="font-style:normal;font-variant:normal;font-weight:normal;font-stretch:normal;font-family:'Arial Rounded MT Bold';-inkscape-font-specification:'Arial Rounded MT Bold, ';text-align:center;text-anchor:middle;fill:#ff0000;fill-opacity:1;stroke:none;stroke-width:0.264583"
           id="path1070" />
        <path
           d="m 182.98628,47.854591 v -3.38063 q 0,-0.43157 0.19181,-0.647355 0.1966,-0.215784 0.51308,-0.215784 0.33087,0 0.52268,0.215784 0.19661,0.215785 0.19661,0.647355 v 3.457354 q 0,0.589812 0.12947,0.987815 0.13426,0.393208 0.46993,0.613788 0.33567,0.215785 0.93986,0.215785 0.83437,0 1.17963,-0.44116 0.34525,-0.445956 0.34525,-1.347457 v -3.486125 q 0,-0.436365 0.19181,-0.647355 0.19181,-0.215784 0.51309,-0.215784 0.32128,0 0.51788,0.215784 0.2014,0.21099 0.2014,0.647355 v 3.38063 q 0,0.824778 -0.16303,1.376228 -0.15825,0.55145 -0.6042,0.968635 -0.38362,0.354846 -0.89191,0.517883 -0.5083,0.163038 -1.18922,0.163038 -0.81039,0 -1.39541,-0.172628 -0.58501,-0.177423 -0.95424,-0.54186 -0.36924,-0.369232 -0.54186,-0.939863 -0.17263,-0.575426 -0.17263,-1.371433 z"
           style="font-style:normal;font-variant:normal;font-weight:normal;font-stretch:normal;font-family:'Arial Rounded MT Bold';-inkscape-font-specification:'Arial Rounded MT Bold, ';text-align:center;text-anchor:middle;fill:#ff0000;fill-opacity:1;stroke:none;stroke-width:0.264583"
           id="path1072" />
        <path
           d="m 191.83346,44.473961 v 5.1165 h 2.88672 q 0.34525,0 0.52747,0.167832 0.18702,0.167833 0.18702,0.42198 0,0.258942 -0.18222,0.421979 -0.18222,0.158242 -0.53227,0.158242 h -3.43817 q -0.46514,0 -0.67133,-0.206194 -0.2014,-0.206195 -0.2014,-0.666536 v -5.413803 q 0,-0.43157 0.19181,-0.647355 0.1966,-0.215784 0.51308,-0.215784 0.32128,0 0.51789,0.215784 0.2014,0.21099 0.2014,0.647355 z"
           style="font-style:normal;font-variant:normal;font-weight:normal;font-stretch:normal;font-family:'Arial Rounded MT Bold';-inkscape-font-specification:'Arial Rounded MT Bold, ';text-align:center;text-anchor:middle;fill:#ff0000;fill-opacity:1;stroke:none;stroke-width:0.264583"
           id="path1074" />
        <path
           d="m 200.74058,49.964488 -0.33567,-0.882321 h -2.85795 l -0.33566,0.901502 q -0.19661,0.527474 -0.33567,0.714487 -0.13906,0.182219 -0.45554,0.182219 -0.26854,0 -0.47473,-0.196604 -0.2062,-0.196604 -0.2062,-0.445956 0,-0.143856 0.048,-0.297303 0.048,-0.153447 0.15824,-0.426775 l 1.79821,-4.565049 q 0.0767,-0.196604 0.18222,-0.469932 0.11029,-0.278122 0.23017,-0.460341 0.12467,-0.182218 0.32128,-0.292508 0.20139,-0.115085 0.4939,-0.115085 0.29731,0 0.49391,0.115085 0.2014,0.11029 0.32128,0.287713 0.12468,0.177423 0.20619,0.383618 0.0863,0.201399 0.21579,0.541859 l 1.83657,4.536278 q 0.21578,0.517884 0.21578,0.75285 0,0.244556 -0.20619,0.45075 -0.2014,0.2014 -0.48911,0.2014 -0.16784,0 -0.28772,-0.06234 -0.11988,-0.05754 -0.2014,-0.158242 -0.0815,-0.105495 -0.17742,-0.316485 -0.0911,-0.215785 -0.15824,-0.378822 z m -2.81959,-1.951655 h 2.10031 l -1.05975,-2.901108 z"
           style="font-style:normal;font-variant:normal;font-weight:normal;font-stretch:normal;font-family:'Arial Rounded MT Bold';-inkscape-font-specification:'Arial Rounded MT Bold, ';text-align:center;text-anchor:middle;fill:#ff0000;fill-opacity:1;stroke:none;stroke-width:0.264583"
           id="path1076" />
        <path
           d="m 205.22171,47.753891 h -0.4987 v 2.258549 q 0,0.445955 -0.1966,0.656945 -0.19661,0.21099 -0.51309,0.21099 -0.34046,0 -0.52748,-0.22058 -0.18701,-0.22058 -0.18701,-0.647355 v -5.409008 q 0,-0.460341 0.20619,-0.666535 0.2062,-0.206195 0.66654,-0.206195 h 2.31609 q 0.47952,0 0.81998,0.04316 0.34046,0.03836 0.61379,0.163038 0.33087,0.139061 0.58502,0.398003 0.25415,0.258942 0.38362,0.604197 0.13426,0.340461 0.13426,0.724079 0,0.786416 -0.44595,1.256347 -0.44116,0.469932 -1.34266,0.666536 0.37882,0.201399 0.72407,0.594607 0.34526,0.393208 0.61379,0.839163 0.27333,0.441161 0.42198,0.800802 0.15345,0.354846 0.15345,0.489113 0,0.139061 -0.0911,0.278122 -0.0863,0.134266 -0.23976,0.21099 -0.15345,0.08152 -0.35485,0.08152 -0.23976,0 -0.4028,-0.115086 -0.16303,-0.11029 -0.28291,-0.282918 -0.11509,-0.172627 -0.31649,-0.508293 l -0.57063,-0.949453 q -0.30689,-0.522679 -0.55145,-0.796007 -0.23976,-0.273327 -0.48911,-0.374027 -0.24935,-0.1007 -0.62818,-0.1007 z m 0.81519,-2.953855 h -1.31389 v 1.932474 h 1.27553 q 0.51309,0 0.86314,-0.08631 0.35005,-0.09111 0.53227,-0.302099 0.18701,-0.215785 0.18701,-0.589812 0,-0.292509 -0.14865,-0.513089 -0.14865,-0.225375 -0.41239,-0.335665 -0.24935,-0.105495 -0.98302,-0.105495 z"
           style="font-style:normal;font-variant:normal;font-weight:normal;font-stretch:normal;font-family:'Arial Rounded MT Bold';-inkscape-font-specification:'Arial Rounded MT Bold, ';text-align:center;text-anchor:middle;fill:#ff0000;fill-opacity:1;stroke:none;stroke-width:0.264583"
           id="path1078" />
        <path
           d="m 215.70886,48.650598 q 0,0.637764 -0.33087,1.146057 -0.32608,0.508293 -0.95905,0.796007 -0.63296,0.287713 -1.5009,0.287713 -1.04056,0 -1.71669,-0.393208 -0.47952,-0.282918 -0.78162,-0.75285 -0.2973,-0.474727 -0.2973,-0.920682 0,-0.258942 0.17742,-0.44116 0.18222,-0.187014 0.46034,-0.187014 0.22538,0 0.37882,0.143857 0.15825,0.143856 0.26854,0.426774 0.13426,0.335666 0.28771,0.561041 0.15824,0.225375 0.44116,0.374027 0.28292,0.143857 0.74326,0.143857 0.63297,0 1.02618,-0.292509 0.398,-0.297303 0.398,-0.738463 0,-0.350051 -0.21579,-0.565836 -0.21099,-0.22058 -0.55145,-0.335666 -0.33566,-0.115085 -0.9015,-0.244556 -0.75764,-0.177423 -1.27073,-0.412389 -0.50829,-0.239761 -0.81039,-0.647355 -0.29731,-0.412388 -0.29731,-1.021381 0,-0.580222 0.31649,-1.030973 0.31648,-0.45075 0.91589,-0.690511 0.5994,-0.244556 1.40979,-0.244556 0.64735,0 1.11729,0.163037 0.47472,0.158242 0.78641,0.426775 0.31169,0.263737 0.45555,0.556245 0.14385,0.292509 0.14385,0.570631 0,0.254147 -0.18221,0.460341 -0.17743,0.2014 -0.44596,0.2014 -0.24456,0 -0.37403,-0.119881 -0.12467,-0.124676 -0.27332,-0.402798 -0.19181,-0.398004 -0.46034,-0.618584 -0.26854,-0.225375 -0.86314,-0.225375 -0.55145,0 -0.89192,0.244556 -0.33566,0.239761 -0.33566,0.580222 0,0.210989 0.11508,0.364436 0.11509,0.153447 0.31649,0.263738 0.2014,0.11029 0.40759,0.172627 0.2062,0.06234 0.68092,0.182219 0.59461,0.139061 1.07413,0.306894 0.48432,0.167833 0.81999,0.407594 0.34046,0.239761 0.52747,0.608992 0.19181,0.364437 0.19181,0.896707 z"
           style="font-style:normal;font-variant:normal;font-weight:normal;font-stretch:normal;font-family:'Arial Rounded MT Bold';-inkscape-font-specification:'Arial Rounded MT Bold, ';text-align:center;text-anchor:middle;fill:#ff0000;fill-opacity:1;stroke:none;stroke-width:0.264583"
           id="path1080" />
        <path
           d="m 163.59441,63.036257 h -2.14826 q -0.46513,0 -0.66653,-0.206195 -0.19661,-0.210989 -0.19661,-0.666535 v -5.284332 q 0,-0.465137 0.2014,-0.666536 0.2062,-0.206194 0.66174,-0.206194 h 2.27773 q 0.5035,0 0.87273,0.06234 0.36923,0.06234 0.66174,0.239761 0.24935,0.148652 0.44116,0.378823 0.19181,0.225375 0.29251,0.503498 0.1007,0.273327 0.1007,0.580222 0,1.054948 -1.05495,1.54406 1.38582,0.44116 1.38582,1.716689 0,0.589812 -0.3021,1.064539 -0.3021,0.469931 -0.81519,0.695307 -0.32128,0.134266 -0.73846,0.191808 -0.41718,0.05275 -0.97343,0.05275 z m -0.1055,-3.121688 h -1.48172 v 2.052354 h 1.52968 q 1.44336,0 1.44336,-1.040563 0,-0.532269 -0.37403,-0.77203 -0.37403,-0.239761 -1.11729,-0.239761 z m -1.48172,-2.83877 v 1.817388 h 1.3043 q 0.53227,0 0.81998,-0.1007 0.29251,-0.100699 0.44596,-0.383617 0.11988,-0.201399 0.11988,-0.450751 0,-0.532269 -0.37882,-0.704897 -0.37882,-0.177423 -1.15565,-0.177423 z"
           style="font-style:normal;font-variant:normal;font-weight:normal;font-stretch:normal;font-family:'Arial Rounded MT Bold';-inkscape-font-specification:'Arial Rounded MT Bold, ';text-align:center;text-anchor:middle;fill:#ff0000;fill-opacity:1;stroke:none;stroke-width:0.264583"
           id="path1082" />
        <path
           d="m 170.74408,55.886584 q 1.09331,0 1.87493,0.445956 0.78642,0.44116 1.18922,1.261142 0.4028,0.815188 0.4028,1.918088 0,0.815188 -0.22058,1.481723 -0.22058,0.666536 -0.66174,1.155648 -0.44116,0.489113 -1.08372,0.748054 -0.64256,0.258942 -1.47214,0.258942 -0.82477,0 -1.47692,-0.263737 -0.65215,-0.268532 -1.08852,-0.752849 -0.43636,-0.484317 -0.66174,-1.165239 -0.22058,-0.680921 -0.22058,-1.472132 0,-0.810392 0.23017,-1.486518 0.23497,-0.676126 0.67613,-1.150853 0.44116,-0.474727 1.07413,-0.724078 0.63297,-0.254147 1.43856,-0.254147 z m 2.02358,3.615596 q 0,-0.772031 -0.24935,-1.337866 -0.24935,-0.565836 -0.71448,-0.85355 -0.46035,-0.292508 -1.05975,-0.292508 -0.42677,0 -0.79121,0.163037 -0.35964,0.158243 -0.62338,0.465137 -0.25894,0.306894 -0.41239,0.786416 -0.14865,0.474727 -0.14865,1.069334 0,0.599402 0.14865,1.083719 0.15345,0.484318 0.42678,0.805597 0.27812,0.316485 0.63297,0.474727 0.35964,0.158242 0.78641,0.158242 0.54666,0 1.0022,-0.273327 0.46035,-0.273328 0.72888,-0.843959 0.27332,-0.570631 0.27332,-1.404999 z"
           style="font-style:normal;font-variant:normal;font-weight:normal;font-stretch:normal;font-family:'Arial Rounded MT Bold';-inkscape-font-specification:'Arial Rounded MT Bold, ';text-align:center;text-anchor:middle;fill:#ff0000;fill-opacity:1;stroke:none;stroke-width:0.264583"
           id="path1084" />
        <path
           d="m 177.3519,60.029654 h -0.49871 v 2.258549 q 0,0.445955 -0.1966,0.656945 -0.19661,0.210989 -0.51309,0.210989 -0.34046,0 -0.52747,-0.22058 -0.18702,-0.22058 -0.18702,-0.647354 v -5.409008 q 0,-0.460341 0.2062,-0.666536 0.20619,-0.206194 0.66653,-0.206194 h 2.31609 q 0.47953,0 0.81999,0.04316 0.34046,0.03836 0.61378,0.163037 0.33087,0.139061 0.58502,0.398003 0.25415,0.258942 0.38362,0.604198 0.13426,0.340461 0.13426,0.724078 0,0.786416 -0.44595,1.256348 -0.44116,0.469931 -1.34266,0.666535 0.37882,0.2014 0.72408,0.594608 0.34525,0.393208 0.61378,0.839163 0.27333,0.44116 0.42198,0.800802 0.15345,0.354846 0.15345,0.489112 0,0.139062 -0.0911,0.278123 -0.0863,0.134266 -0.23976,0.21099 -0.15345,0.08152 -0.35485,0.08152 -0.23976,0 -0.40279,-0.115085 -0.16304,-0.11029 -0.28292,-0.282918 -0.11509,-0.172628 -0.31649,-0.508293 l -0.57063,-0.949454 q -0.30689,-0.522679 -0.55145,-0.796006 -0.23976,-0.273328 -0.48911,-0.374027 -0.24935,-0.1007 -0.62817,-0.1007 z m 0.81518,-2.953855 h -1.31389 v 1.932473 h 1.27553 q 0.51309,0 0.86314,-0.08631 0.35005,-0.09111 0.53227,-0.302099 0.18701,-0.215784 0.18701,-0.589812 0,-0.292508 -0.14865,-0.513088 -0.14865,-0.225375 -0.41239,-0.335666 -0.24935,-0.105494 -0.98302,-0.105494 z"
           style="font-style:normal;font-variant:normal;font-weight:normal;font-stretch:normal;font-family:'Arial Rounded MT Bold';-inkscape-font-specification:'Arial Rounded MT Bold, ';text-align:center;text-anchor:middle;fill:#ff0000;fill-opacity:1;stroke:none;stroke-width:0.264583"
           id="path1086" />
        <path
           d="m 184.41046,60.029654 h -0.4987 v 2.258549 q 0,0.445955 -0.19661,0.656945 -0.1966,0.210989 -0.51309,0.210989 -0.34046,0 -0.52747,-0.22058 -0.18701,-0.22058 -0.18701,-0.647354 v -5.409008 q 0,-0.460341 0.20619,-0.666536 0.20619,-0.206194 0.66654,-0.206194 h 2.31609 q 0.47952,0 0.81998,0.04316 0.34046,0.03836 0.61379,0.163037 0.33087,0.139061 0.58501,0.398003 0.25415,0.258942 0.38362,0.604198 0.13427,0.340461 0.13427,0.724078 0,0.786416 -0.44596,1.256348 -0.44116,0.469931 -1.34266,0.666535 0.37882,0.2014 0.72408,0.594608 0.34526,0.393208 0.61379,0.839163 0.27332,0.44116 0.42198,0.800802 0.15344,0.354846 0.15344,0.489112 0,0.139062 -0.0911,0.278123 -0.0863,0.134266 -0.23976,0.21099 -0.15344,0.08152 -0.35484,0.08152 -0.23976,0 -0.4028,-0.115085 -0.16304,-0.11029 -0.28292,-0.282918 -0.11508,-0.172628 -0.31648,-0.508293 l -0.57063,-0.949454 q -0.3069,-0.522679 -0.55145,-0.796006 -0.23977,-0.273328 -0.48912,-0.374027 -0.24935,-0.1007 -0.62817,-0.1007 z m 0.81519,-2.953855 h -1.31389 v 1.932473 h 1.27552 q 0.51309,0 0.86314,-0.08631 0.35006,-0.09111 0.53227,-0.302099 0.18702,-0.215784 0.18702,-0.589812 0,-0.292508 -0.14865,-0.513088 -0.14866,-0.225375 -0.41239,-0.335666 -0.24936,-0.105494 -0.98302,-0.105494 z"
           style="font-style:normal;font-variant:normal;font-weight:normal;font-stretch:normal;font-family:'Arial Rounded MT Bold';-inkscape-font-specification:'Arial Rounded MT Bold, ';text-align:center;text-anchor:middle;fill:#ff0000;fill-opacity:1;stroke:none;stroke-width:0.264583"
           id="path1088" />
        <path
           d="m 192.64865,55.886584 q 1.09331,0 1.87493,0.445956 0.78641,0.44116 1.18921,1.261142 0.4028,0.815188 0.4028,1.918088 0,0.815188 -0.22058,1.481723 -0.22058,0.666536 -0.66174,1.155648 -0.44116,0.489113 -1.08372,0.748054 -0.64256,0.258942 -1.47213,0.258942 -0.82478,0 -1.47693,-0.263737 -0.65215,-0.268532 -1.08852,-0.752849 -0.43636,-0.484317 -0.66174,-1.165239 -0.22058,-0.680921 -0.22058,-1.472132 0,-0.810392 0.23018,-1.486518 0.23496,-0.676126 0.67612,-1.150853 0.44116,-0.474727 1.07413,-0.724078 0.63297,-0.254147 1.43857,-0.254147 z m 2.02358,3.615596 q 0,-0.772031 -0.24935,-1.337866 -0.24935,-0.565836 -0.71449,-0.85355 -0.46034,-0.292508 -1.05974,-0.292508 -0.42678,0 -0.79122,0.163037 -0.35964,0.158243 -0.62337,0.465137 -0.25895,0.306894 -0.41239,0.786416 -0.14865,0.474727 -0.14865,1.069334 0,0.599402 0.14865,1.083719 0.15344,0.484318 0.42677,0.805597 0.27812,0.316485 0.63297,0.474727 0.35964,0.158242 0.78642,0.158242 0.54665,0 1.0022,-0.273327 0.46034,-0.273328 0.72887,-0.843959 0.27333,-0.570631 0.27333,-1.404999 z"
           style="font-style:normal;font-variant:normal;font-weight:normal;font-stretch:normal;font-family:'Arial Rounded MT Bold';-inkscape-font-specification:'Arial Rounded MT Bold, ';text-align:center;text-anchor:middle;fill:#ff0000;fill-opacity:1;stroke:none;stroke-width:0.264583"
           id="path1090" />
        <path
           d="m 202.43809,61.928561 -1.13647,-4.214998 -1.15085,4.214998 q -0.13427,0.479522 -0.21579,0.690512 -0.0767,0.206194 -0.27333,0.374027 -0.1966,0.163037 -0.52268,0.163037 -0.26373,0 -0.43636,-0.100699 -0.16783,-0.09591 -0.27333,-0.273328 -0.10549,-0.182218 -0.17263,-0.426774 -0.0671,-0.249352 -0.11988,-0.460342 l -1.17003,-4.732881 q -0.10549,-0.412389 -0.10549,-0.628174 0,-0.273328 0.1918,-0.460341 0.19181,-0.187014 0.47473,-0.187014 0.38841,0 0.52268,0.249352 0.13427,0.249351 0.23497,0.724078 l 0.92068,4.104708 1.03097,-3.840971 q 0.11509,-0.44116 0.20619,-0.671331 0.0911,-0.23017 0.29731,-0.398003 0.20619,-0.167833 0.56104,-0.167833 0.35964,0 0.55624,0.177423 0.2014,0.172628 0.27813,0.378823 0.0767,0.206194 0.20619,0.680921 l 1.04056,3.840971 0.92069,-4.104708 q 0.0671,-0.32128 0.12467,-0.503498 0.0623,-0.182219 0.2062,-0.326075 0.14865,-0.143857 0.42677,-0.143857 0.27812,0 0.46993,0.187014 0.19661,0.182218 0.19661,0.460341 0,0.196604 -0.1055,0.628174 l -1.17003,4.732881 q -0.11988,0.479522 -0.2014,0.704898 -0.0767,0.22058 -0.26853,0.388413 -0.18702,0.167832 -0.53227,0.167832 -0.32608,0 -0.52268,-0.163037 -0.19661,-0.163038 -0.27333,-0.364437 -0.0767,-0.206194 -0.21578,-0.700102 z"
           style="font-style:normal;font-variant:normal;font-weight:normal;font-stretch:normal;font-family:'Arial Rounded MT Bold';-inkscape-font-specification:'Arial Rounded MT Bold, ';text-align:center;text-anchor:middle;fill:#ff0000;fill-opacity:1;stroke:none;stroke-width:0.264583"
           id="path1092" />
        <path
           d="m 176.35928,75.312019 h -2.14825 q -0.46514,0 -0.66654,-0.206194 -0.1966,-0.21099 -0.1966,-0.666536 v -5.284332 q 0,-0.465136 0.2014,-0.666535 0.20619,-0.206195 0.66174,-0.206195 h 2.27773 q 0.50349,0 0.87273,0.06234 0.36923,0.06234 0.66174,0.239761 0.24935,0.148652 0.44116,0.378822 0.19181,0.225376 0.2925,0.503498 0.1007,0.273328 0.1007,0.580222 0,1.054948 -1.05494,1.544061 1.38581,0.44116 1.38581,1.716688 0,0.589813 -0.30209,1.064539 -0.3021,0.469932 -0.81519,0.695307 -0.32128,0.134266 -0.73847,0.191809 -0.41718,0.05275 -0.97343,0.05275 z m -0.10549,-3.121688 h -1.48172 v 2.052354 h 1.52967 q 1.44336,0 1.44336,-1.040562 0,-0.53227 -0.37402,-0.772031 -0.37403,-0.239761 -1.11729,-0.239761 z m -1.48172,-2.83877 v 1.817388 h 1.3043 q 0.53227,0 0.81998,-0.100699 0.29251,-0.1007 0.44595,-0.383618 0.11989,-0.201399 0.11989,-0.45075 0,-0.53227 -0.37883,-0.704898 -0.37882,-0.177423 -1.15564,-0.177423 z"
           style="font-style:normal;font-variant:normal;font-weight:normal;font-stretch:normal;font-family:'Arial Rounded MT Bold';-inkscape-font-specification:'Arial Rounded MT Bold, ';text-align:center;text-anchor:middle;fill:#ff0000;fill-opacity:1;stroke:none;stroke-width:0.264583"
           id="path1094" />
        <path
           d="m 183.50896,68.162347 q 1.09331,0 1.87493,0.445955 0.78641,0.44116 1.18921,1.261143 0.4028,0.815187 0.4028,1.918088 0,0.815187 -0.22058,1.481723 -0.22058,0.666535 -0.66174,1.155648 -0.44116,0.489112 -1.08372,0.748054 -0.64256,0.258942 -1.47213,0.258942 -0.82478,0 -1.47693,-0.263737 -0.65215,-0.268533 -1.08851,-0.75285 -0.43637,-0.484317 -0.66174,-1.165238 -0.22058,-0.680921 -0.22058,-1.472133 0,-0.810392 0.23017,-1.486518 0.23496,-0.676126 0.67612,-1.150852 0.44116,-0.474727 1.07413,-0.724079 0.63297,-0.254146 1.43857,-0.254146 z m 2.02358,3.615595 q 0,-0.77203 -0.24935,-1.337866 -0.24935,-0.565836 -0.71449,-0.853549 -0.46034,-0.292508 -1.05974,-0.292508 -0.42678,0 -0.79121,0.163037 -0.35965,0.158242 -0.62338,0.465136 -0.25894,0.306894 -0.41239,0.786416 -0.14865,0.474727 -0.14865,1.069334 0,0.599403 0.14865,1.08372 0.15345,0.484317 0.42677,0.805597 0.27813,0.316484 0.63297,0.474727 0.35964,0.158242 0.78642,0.158242 0.54665,0 1.0022,-0.273328 0.46034,-0.273327 0.72887,-0.843958 0.27333,-0.570631 0.27333,-1.405 z"
           style="font-style:normal;font-variant:normal;font-weight:normal;font-stretch:normal;font-family:'Arial Rounded MT Bold';-inkscape-font-specification:'Arial Rounded MT Bold, ';text-align:center;text-anchor:middle;fill:#ff0000;fill-opacity:1;stroke:none;stroke-width:0.264583"
           id="path1096" />
        <path
           d="m 187.70717,73.945382 1.57283,-2.296911 -1.32348,-2.042763 q -0.18701,-0.297304 -0.28291,-0.508293 -0.0911,-0.215785 -0.0911,-0.412389 0,-0.2014 0.17742,-0.359642 0.18222,-0.163037 0.44116,-0.163037 0.2973,0 0.46034,0.177423 0.16783,0.172628 0.46034,0.647354 l 1.05495,1.707099 1.12688,-1.707099 q 0.13906,-0.215784 0.23496,-0.369231 0.1007,-0.153447 0.19181,-0.254147 0.0911,-0.1007 0.2014,-0.148652 0.11509,-0.05275 0.26374,-0.05275 0.26853,0 0.43636,0.163037 0.17263,0.158242 0.17263,0.378823 0,0.321279 -0.36923,0.87273 l -1.38582,2.071534 1.49131,2.296911 q 0.2014,0.302099 0.29251,0.503498 0.0911,0.196604 0.0911,0.374027 0,0.167833 -0.0815,0.306894 -0.0815,0.139061 -0.23017,0.22058 -0.14865,0.08152 -0.33566,0.08152 -0.2014,0 -0.34046,-0.08631 -0.13907,-0.08152 -0.22538,-0.206195 -0.0863,-0.124675 -0.32128,-0.484317 l -1.23717,-1.946859 -1.31389,2.004402 q -0.15344,0.239761 -0.22058,0.335665 -0.0623,0.09591 -0.15344,0.187014 -0.0911,0.09111 -0.21579,0.143856 -0.12467,0.05275 -0.29251,0.05275 -0.25894,0 -0.43157,-0.158242 -0.16783,-0.158243 -0.16783,-0.460342 0,-0.354846 0.35005,-0.867934 z"
           style="font-style:normal;font-variant:normal;font-weight:normal;font-stretch:normal;font-family:'Arial Rounded MT Bold';-inkscape-font-specification:'Arial Rounded MT Bold, ';text-align:center;text-anchor:middle;fill:#ff0000;fill-opacity:1;stroke:none;stroke-width:0.264583"
           id="path1098" />
      </g>
    </g>
  </g>
  <g
     style="display:none"
     inkscape:groupmode="layer"
     id="layer6"
     inkscape:label="engrave_1" />
</svg>
